<mxfile host="app.diagrams.net" modified="2023-08-21T08:17:12.092Z" agent="Mozilla/5.0 (Windows NT 10.0; Win64; x64) AppleWebKit/537.36 (KHTML, like Gecko) Chrome/115.0.0.0 Safari/537.36 Edg/115.0.1901.203" etag="CABwDxg7K5-0O68RHktn" version="21.6.8" type="github">
  <diagram name="第 1 页" id="F6DWcneqREfnwW1seEcS">
    <mxGraphModel dx="1905" dy="1200" grid="1" gridSize="10" guides="1" tooltips="1" connect="1" arrows="1" fold="1" page="1" pageScale="1" pageWidth="850" pageHeight="1100" math="0" shadow="0">
      <root>
        <mxCell id="0" />
        <mxCell id="1" parent="0" />
        <mxCell id="sGPxO4o0aORKrRpbWZq8-1" value="23年S01" style="text;html=1;align=center;verticalAlign=middle;resizable=0;points=[];autosize=1;strokeColor=none;fillColor=none;fontStyle=1" vertex="1" parent="1">
          <mxGeometry x="2" y="15" width="70" height="30" as="geometry" />
        </mxCell>
        <mxCell id="sGPxO4o0aORKrRpbWZq8-2" value="22年大盘" style="text;html=1;align=center;verticalAlign=middle;resizable=0;points=[];autosize=1;strokeColor=none;fillColor=none;fontStyle=1" vertex="1" parent="1">
          <mxGeometry x="2" y="95" width="70" height="30" as="geometry" />
        </mxCell>
        <mxCell id="sGPxO4o0aORKrRpbWZq8-3" value="WK1" style="rounded=0;whiteSpace=wrap;html=1;fillColor=#ffe6cc;strokeColor=#d79b00;" vertex="1" parent="1">
          <mxGeometry x="62" width="120" height="60" as="geometry" />
        </mxCell>
        <mxCell id="sGPxO4o0aORKrRpbWZq8-4" value="WK2" style="rounded=0;whiteSpace=wrap;html=1;fillColor=#ffe6cc;strokeColor=#d79b00;" vertex="1" parent="1">
          <mxGeometry x="182" width="120" height="60" as="geometry" />
        </mxCell>
        <mxCell id="sGPxO4o0aORKrRpbWZq8-5" value="WK3" style="rounded=0;whiteSpace=wrap;html=1;fillColor=#ffe6cc;strokeColor=#d79b00;" vertex="1" parent="1">
          <mxGeometry x="302" width="120" height="60" as="geometry" />
        </mxCell>
        <mxCell id="sGPxO4o0aORKrRpbWZq8-6" value="WK4" style="rounded=0;whiteSpace=wrap;html=1;" vertex="1" parent="1">
          <mxGeometry x="422" width="120" height="60" as="geometry" />
        </mxCell>
        <mxCell id="sGPxO4o0aORKrRpbWZq8-7" value="WK3" style="rounded=0;whiteSpace=wrap;html=1;fillColor=#ffe6cc;strokeColor=#d79b00;" vertex="1" parent="1">
          <mxGeometry x="302" y="80" width="120" height="60" as="geometry" />
        </mxCell>
        <mxCell id="sGPxO4o0aORKrRpbWZq8-8" value="WK2" style="rounded=0;whiteSpace=wrap;html=1;fillColor=#ffe6cc;strokeColor=#d79b00;" vertex="1" parent="1">
          <mxGeometry x="182" y="80" width="120" height="60" as="geometry" />
        </mxCell>
        <mxCell id="sGPxO4o0aORKrRpbWZq8-9" value="WK1" style="rounded=0;whiteSpace=wrap;html=1;fillColor=#ffe6cc;strokeColor=#d79b00;" vertex="1" parent="1">
          <mxGeometry x="62" y="80" width="120" height="60" as="geometry" />
        </mxCell>
        <mxCell id="sGPxO4o0aORKrRpbWZq8-10" value="WK4" style="rounded=0;whiteSpace=wrap;html=1;fillColor=#ffe6cc;strokeColor=#d79b00;" vertex="1" parent="1">
          <mxGeometry x="422" y="80" width="120" height="60" as="geometry" />
        </mxCell>
        <mxCell id="sGPxO4o0aORKrRpbWZq8-11" value="当前在WK3 周末" style="text;html=1;align=center;verticalAlign=middle;resizable=0;points=[];autosize=1;strokeColor=none;fillColor=none;fontStyle=1" vertex="1" parent="1">
          <mxGeometry x="2" y="199" width="110" height="30" as="geometry" />
        </mxCell>
        <mxCell id="sGPxO4o0aORKrRpbWZq8-12" value="23（WK1+WK2)" style="text;html=1;align=center;verticalAlign=middle;resizable=0;points=[];autosize=1;strokeColor=none;fillColor=none;fontStyle=1" vertex="1" parent="1">
          <mxGeometry x="573.3" y="50" width="110" height="30" as="geometry" />
        </mxCell>
        <mxCell id="sGPxO4o0aORKrRpbWZq8-13" value="" style="endArrow=none;html=1;rounded=0;exitX=-0.03;exitY=0.867;exitDx=0;exitDy=0;exitPerimeter=0;" edge="1" parent="1" source="sGPxO4o0aORKrRpbWZq8-12">
          <mxGeometry width="50" height="50" relative="1" as="geometry">
            <mxPoint x="633.3" y="80" as="sourcePoint" />
            <mxPoint x="673.3" y="76" as="targetPoint" />
          </mxGeometry>
        </mxCell>
        <mxCell id="sGPxO4o0aORKrRpbWZq8-14" value="22（WK1+WK2)" style="text;html=1;align=center;verticalAlign=middle;resizable=0;points=[];autosize=1;strokeColor=none;fillColor=none;fontStyle=1" vertex="1" parent="1">
          <mxGeometry x="573.3" y="85" width="110" height="30" as="geometry" />
        </mxCell>
        <mxCell id="sGPxO4o0aORKrRpbWZq8-15" value="=" style="text;html=1;align=center;verticalAlign=middle;resizable=0;points=[];autosize=1;strokeColor=none;fillColor=none;" vertex="1" parent="1">
          <mxGeometry x="678.3" y="63" width="30" height="30" as="geometry" />
        </mxCell>
        <mxCell id="sGPxO4o0aORKrRpbWZq8-16" value="23（WK3+WK4)" style="text;html=1;align=center;verticalAlign=middle;resizable=0;points=[];autosize=1;strokeColor=none;fillColor=none;fontStyle=1" vertex="1" parent="1">
          <mxGeometry x="711.5999999999999" y="50" width="110" height="30" as="geometry" />
        </mxCell>
        <mxCell id="sGPxO4o0aORKrRpbWZq8-17" value="" style="endArrow=none;html=1;rounded=0;exitX=-0.03;exitY=0.867;exitDx=0;exitDy=0;exitPerimeter=0;" edge="1" parent="1" source="sGPxO4o0aORKrRpbWZq8-16">
          <mxGeometry width="50" height="50" relative="1" as="geometry">
            <mxPoint x="771.5999999999999" y="80" as="sourcePoint" />
            <mxPoint x="811.5999999999999" y="76" as="targetPoint" />
          </mxGeometry>
        </mxCell>
        <mxCell id="sGPxO4o0aORKrRpbWZq8-18" value="22（WK3+WK4)" style="text;html=1;align=center;verticalAlign=middle;resizable=0;points=[];autosize=1;strokeColor=none;fillColor=none;fontStyle=1" vertex="1" parent="1">
          <mxGeometry x="711.5999999999999" y="85" width="110" height="30" as="geometry" />
        </mxCell>
        <mxCell id="sGPxO4o0aORKrRpbWZq8-19" value="默认2周环比增长率一致" style="text;html=1;align=center;verticalAlign=middle;resizable=0;points=[];autosize=1;strokeColor=none;fillColor=none;" vertex="1" parent="1">
          <mxGeometry x="560" y="20" width="150" height="30" as="geometry" />
        </mxCell>
        <mxCell id="sGPxO4o0aORKrRpbWZq8-20" value="22 (WK3+WK4)" style="text;html=1;align=center;verticalAlign=middle;resizable=0;points=[];autosize=1;strokeColor=none;fillColor=none;fontStyle=1" vertex="1" parent="1">
          <mxGeometry x="721.3" y="125" width="110" height="30" as="geometry" />
        </mxCell>
        <mxCell id="sGPxO4o0aORKrRpbWZq8-21" value="" style="endArrow=none;html=1;rounded=0;exitX=-0.03;exitY=0.867;exitDx=0;exitDy=0;exitPerimeter=0;" edge="1" parent="1">
          <mxGeometry width="50" height="50" relative="1" as="geometry">
            <mxPoint x="718.3" y="160" as="sourcePoint" />
            <mxPoint x="821.3" y="160" as="targetPoint" />
          </mxGeometry>
        </mxCell>
        <mxCell id="sGPxO4o0aORKrRpbWZq8-22" value="22（WK1+WK2)" style="text;html=1;align=center;verticalAlign=middle;resizable=0;points=[];autosize=1;strokeColor=none;fillColor=none;fontStyle=1" vertex="1" parent="1">
          <mxGeometry x="721.3" y="169" width="110" height="30" as="geometry" />
        </mxCell>
        <mxCell id="sGPxO4o0aORKrRpbWZq8-23" value="同期2周同比增长率" style="text;html=1;align=center;verticalAlign=middle;resizable=0;points=[];autosize=1;strokeColor=none;fillColor=none;" vertex="1" parent="1">
          <mxGeometry x="560" y="149" width="130" height="30" as="geometry" />
        </mxCell>
        <mxCell id="sGPxO4o0aORKrRpbWZq8-24" value="=" style="text;html=1;align=center;verticalAlign=middle;resizable=0;points=[];autosize=1;strokeColor=none;fillColor=none;" vertex="1" parent="1">
          <mxGeometry x="685" y="149" width="30" height="30" as="geometry" />
        </mxCell>
        <mxCell id="sGPxO4o0aORKrRpbWZq8-25" value="下周预测销量=同期2周同比增长率* 2周环比增长率*同期（本周+下周）销量-本期本周销量" style="text;html=1;align=center;verticalAlign=middle;resizable=0;points=[];autosize=1;strokeColor=none;fillColor=none;" vertex="1" parent="1">
          <mxGeometry x="9.999999999999943" y="240" width="500" height="30" as="geometry" />
        </mxCell>
        <mxCell id="sGPxO4o0aORKrRpbWZq8-26" value="" style="rounded=0;whiteSpace=wrap;html=1;fillColor=#ffe6cc;strokeColor=none;" vertex="1" parent="1">
          <mxGeometry x="10" y="155" width="60" height="15" as="geometry" />
        </mxCell>
        <mxCell id="sGPxO4o0aORKrRpbWZq8-27" value="有销量" style="text;html=1;align=center;verticalAlign=middle;resizable=0;points=[];autosize=1;strokeColor=none;fillColor=none;" vertex="1" parent="1">
          <mxGeometry x="80" y="149" width="60" height="30" as="geometry" />
        </mxCell>
        <mxCell id="sGPxO4o0aORKrRpbWZq8-28" value="" style="rounded=0;whiteSpace=wrap;html=1;" vertex="1" parent="1">
          <mxGeometry x="172" y="155" width="60" height="15" as="geometry" />
        </mxCell>
        <mxCell id="sGPxO4o0aORKrRpbWZq8-29" value="预测销量" style="text;html=1;align=center;verticalAlign=middle;resizable=0;points=[];autosize=1;strokeColor=none;fillColor=none;" vertex="1" parent="1">
          <mxGeometry x="237" y="149" width="70" height="30" as="geometry" />
        </mxCell>
      </root>
    </mxGraphModel>
  </diagram>
</mxfile>
